<svg xmlns="http://www.w3.org/2000/svg" viewBox="-3408.9 24338 17.9 17.9">
  <defs>
    <style>
      .cls-1 {
        fill: #532c82;
      }
    </style>
  </defs>
  <g id="post-instagram_1_" transform="translate(-3454 24338)">
    <path id="Path_3434" data-name="Path 3434" class="cls-1" d="M63,1.8A1.793,1.793,0,0,0,61.2,0H46.9a1.793,1.793,0,0,0-1.8,1.8V16.1a1.793,1.793,0,0,0,1.8,1.8H61.2A1.793,1.793,0,0,0,63,16.1ZM54.4,5.1a3.757,3.757,0,0,1,3.7,3.7,3.7,3.7,0,0,1-7.4,0A3.757,3.757,0,0,1,54.4,5.1ZM47.5,16.6c-.3,0-1.1-.6-1.1-.9V8.3H49c-.1,0-.1.4-.1.7a5.463,5.463,0,0,0,5.5,5.4A5.4,5.4,0,0,0,59.9,9c0-.3,0-.8-.1-.8h1.8v7.4c0,.3,0,.9-.3.9H47.5ZM61.8,3.7a.472.472,0,0,1-.5.5H59.5a.472.472,0,0,1-.5-.5V1.9a.472.472,0,0,1,.5-.5h1.8a.472.472,0,0,1,.5.5Z"/>
  </g>
</svg>
