<svg xmlns="http://www.w3.org/2000/svg" viewBox="-2568.847 11459.3 422.368 41.2">
  <defs>
    <style>
      .cls-1 {
        fill: #532c82;
      }

      .cls-2 {
        fill: #7d868c;
      }
    </style>
  </defs>
  <g id="Group_2035" data-name="Group 2035" transform="translate(-2568.847 11459.3)">
    <path id="Path_1507" data-name="Path 1507" class="cls-1" d="M11.116,29.661H9.4c-2.823,0-5.69,1.015-5.69,7.014V47.438H0V26.485H3.617v3.308A6.268,6.268,0,0,1,9.263,26a11.829,11.829,0,0,1,1.809.088v3.573Z" transform="translate(0 -14.531)"/>
    <path id="Path_1508" data-name="Path 1508" class="cls-1" d="M41.216,25.8a11.072,11.072,0,1,1,0,22.144,11.072,11.072,0,1,1,0-22.144Zm0,3.22c-4.323,0-7.323,3.352-7.323,7.808s3,7.808,7.323,7.808,7.323-3.308,7.323-7.764S45.539,29.02,41.216,29.02Z" transform="translate(-16.822 -14.419)"/>
    <path id="Path_1509" data-name="Path 1509" class="cls-1" d="M109.059,47.371h-3.705v-13.5c0-2.867-1.632-4.852-4.676-4.852-2.117,0-4.411,1.191-6.573,3.661V47.415H90.4V26.373h3.617v2.867A9.313,9.313,0,0,1,101.34,25.8c4.985,0,7.72,3.132,7.72,7.808Z" transform="translate(-50.523 -14.419)"/>
    <path id="Path_1510" data-name="Path 1510" class="cls-1" d="M156.5,33.211c0-2.779-2.073-4.058-4.985-4.058a9.15,9.15,0,0,0-5.867,2.294l-1.985-2.779a12.222,12.222,0,0,1,8.117-2.867c5.338,0,8.381,3.044,8.381,7.455V47.371h-3.705V44.989c-1.235,2.117-4.058,2.955-6.264,2.955-4.632,0-7.587-2.779-7.587-6.7,0-4.058,2.823-6.264,7.411-6.264h4.94c1.191,0,1.544-.618,1.544-1.5Zm0,6.4v-2.25a3.229,3.229,0,0,1-2.338.618h-3.264c-2.911,0-4.367,1.191-4.367,3.264,0,1.764,1.367,3.529,4.279,3.529C153.76,44.768,156.5,43.312,156.5,39.607Z" transform="translate(-79.697 -14.419)"/>
    <path id="Path_1511" data-name="Path 1511" class="cls-1" d="M198.905,33.119H195.2V.3h3.705Z" transform="translate(-109.094 -0.168)"/>
    <path id="Path_1512" data-name="Path 1512" class="cls-1" d="M231.918,15.651V.3h3.705V33.119h-3.705V29.678c-1.1,2.206-4.235,3.97-7.5,3.97-6.131,0-10.719-4.632-10.719-11.072S218.155,11.5,224.287,11.5C227.551,11.548,230.771,13.4,231.918,15.651Zm-7.146,14.777c4.323,0,7.323-3.352,7.323-7.808s-3-7.808-7.323-7.808-7.323,3.352-7.323,7.808C217.494,27.076,220.493,30.428,224.772,30.428Z" transform="translate(-119.434 -0.168)"/>
    <path id="Path_1513" data-name="Path 1513" class="cls-1" d="M302.078,32.951h-3.705V15H294.8V11.954h3.573V5.073C298.373,1.147,301.2,0,303.446,0c1.72,0,3.308.176,3.308.176V3.4a15.06,15.06,0,0,0-2.161-.221c-1.72,0-2.514.4-2.514,2.47Z" transform="translate(-164.759 0)"/>
    <path id="Path_1514" data-name="Path 1514" class="cls-1" d="M327.382,37.975c.485,3.794,2.911,6.661,6.793,6.661a6.572,6.572,0,0,0,5.558-2.6h4.411a11.1,11.1,0,0,1-10.013,5.911c-6.132,0-10.631-4.632-10.631-11.072S327.955,25.8,334.087,25.8c5.426,0,10.543,3.529,10.543,12.042v.132Zm.088-3.044h12.836a6.21,6.21,0,0,0-6.22-5.867C330.426,29.064,328.132,31.535,327.47,34.931Z" transform="translate(-180.799 -14.419)"/>
    <path id="Path_1515" data-name="Path 1515" class="cls-1" d="M385.605,33.119H381.9V.3h3.705Z" transform="translate(-213.438 -0.168)"/>
    <path id="Path_1516" data-name="Path 1516" class="cls-1" d="M418.618,15.651V.3h3.705V33.119h-3.705V29.678c-1.1,2.206-4.235,3.97-7.5,3.97-6.132,0-10.719-4.632-10.719-11.072S404.855,11.5,410.987,11.5C414.251,11.548,417.471,13.4,418.618,15.651Zm-7.146,14.777c4.323,0,7.323-3.352,7.323-7.808s-3-7.808-7.323-7.808-7.323,3.352-7.323,7.808C404.194,27.076,407.193,30.428,411.472,30.428Z" transform="translate(-223.777 -0.168)"/>
    <path id="Path_1517" data-name="Path 1517" class="cls-1" d="M480.674,32.637V47.371h-3.705V33.564a4.257,4.257,0,0,0-4.5-4.588c-2.117,0-4.1,1.191-6.264,3.661V47.371H462.5v-21h3.617v2.867a8.972,8.972,0,0,1,7.014-3.441c3.485,0,5.69,1.412,6.749,3.926,2.338-2.735,4.764-3.926,7.72-3.926,4.985,0,7.543,3.132,7.543,7.808V47.326h-3.705V33.564a4.246,4.246,0,0,0-4.455-4.588C484.909,28.976,482.791,30.211,480.674,32.637Z" transform="translate(-258.484 -14.419)"/>
    <path id="Path_1518" data-name="Path 1518" class="cls-1" d="M560.451,33.211c0-2.779-2.073-4.058-4.985-4.058a9.15,9.15,0,0,0-5.867,2.294l-1.985-2.779a12.222,12.222,0,0,1,8.117-2.867c5.337,0,8.381,3.044,8.381,7.455V47.371h-3.661V44.989c-1.235,2.117-4.058,2.955-6.264,2.955-4.632,0-7.587-2.779-7.587-6.7,0-4.058,2.823-6.264,7.411-6.264h4.94c1.191,0,1.544-.618,1.544-1.5v-.265Zm0,6.4v-2.25a3.23,3.23,0,0,1-2.338.618h-3.264c-2.911,0-4.367,1.191-4.367,3.264,0,1.764,1.367,3.529,4.279,3.529S560.451,43.312,560.451,39.607Z" transform="translate(-305.486 -14.419)"/>
    <path id="Path_1519" data-name="Path 1519" class="cls-1" d="M616.715,47.371h-3.661v-13.5c0-2.867-1.632-4.852-4.676-4.852-2.117,0-4.411,1.191-6.573,3.661V47.415H598.1V26.373h3.617v2.867A9.313,9.313,0,0,1,609.04,25.8c4.985,0,7.72,3.132,7.72,7.808V47.371Z" transform="translate(-334.269 -14.419)"/>
    <path id="Path_1520" data-name="Path 1520" class="cls-2" d="M689.374,26.318h3.705V49.211c0,3.22-1.544,6.308-6.352,6.308H678.3V52.476h7.94c1.5,0,3.176-.441,3.176-2.691V43.874c-1.1,2.206-4.235,3.97-7.5,3.97-6.132,0-10.719-4.632-10.719-11.072S675.655,25.7,681.787,25.7c3.264,0,6.529,1.809,7.631,4.058V26.318Zm-7.1,18.306c4.323,0,7.322-3.352,7.322-7.808s-3-7.808-7.322-7.808-7.323,3.352-7.323,7.808S677.949,44.624,682.272,44.624Z" transform="translate(-375.123 -14.363)"/>
    <path id="Path_1521" data-name="Path 1521" class="cls-2" d="M744.2,33.211c0-2.779-2.073-4.058-4.985-4.058a9.15,9.15,0,0,0-5.867,2.294l-1.985-2.779a12.222,12.222,0,0,1,8.117-2.867c5.338,0,8.381,3.044,8.381,7.455V47.371h-3.705V44.989c-1.235,2.117-4.058,2.955-6.264,2.955-4.632,0-7.587-2.779-7.587-6.7,0-4.058,2.823-6.264,7.411-6.264h4.94c1.191,0,1.544-.618,1.544-1.5Zm0,6.4v-2.25a3.229,3.229,0,0,1-2.338.618h-3.308c-2.911,0-4.367,1.191-4.367,3.264,0,1.764,1.367,3.529,4.279,3.529C741.416,44.768,744.2,43.312,744.2,39.607Z" transform="translate(-408.153 -14.419)"/>
    <path id="Path_1522" data-name="Path 1522" class="cls-2" d="M786.605,33.119H782.9V.3h3.706Z" transform="translate(-437.551 -0.168)"/>
    <path id="Path_1523" data-name="Path 1523" class="cls-2" d="M809.206,33.119H805.5V.3h3.705Z" transform="translate(-450.182 -0.168)"/>
    <path id="Path_1524" data-name="Path 1524" class="cls-2" d="M827.882,37.975c.485,3.794,2.911,6.661,6.793,6.661a6.572,6.572,0,0,0,5.558-2.6h4.411a11.1,11.1,0,0,1-10.013,5.911C828.5,47.944,824,43.312,824,36.872S828.455,25.8,834.587,25.8c5.426,0,10.543,3.529,10.543,12.042v.132Zm.088-3.044h12.836a6.21,6.21,0,0,0-6.22-5.867C830.926,29.064,828.632,31.535,827.97,34.931Z" transform="translate(-460.521 -14.419)"/>
    <path id="Path_1525" data-name="Path 1525" class="cls-2" d="M892.416,29.661H890.7c-2.823,0-5.69,1.015-5.69,7.014V47.438H881.3V26.485h3.617v3.308A6.251,6.251,0,0,1,890.608,26a11.827,11.827,0,0,1,1.809.088v3.573Z" transform="translate(-492.545 -14.531)"/>
    <path id="Path_1526" data-name="Path 1526" class="cls-2" d="M920,48.1h-.926l-7.675-21h4.1l6,17.821L927.854,27.1h3.882L922.3,51.714c-1.191,3-2.6,4.632-6.661,4.632h-2.426V53.3h2.338c2.029,0,2.823-.662,3.573-2.779Z" transform="translate(-509.367 -15.146)"/>
  </g>
</svg>
