<svg xmlns="http://www.w3.org/2000/svg" viewBox="-3362.9 24338.199 20.4 16.602">
  <defs>
    <style>
      .cls-1 {
        fill: #532c82;
      }
    </style>
  </defs>
  <path id="path22_1_" class="cls-1" d="M161.5,2.1a8.433,8.433,0,0,1-2.4.7A3.789,3.789,0,0,0,160.9.5a8.247,8.247,0,0,1-2.6,1,4.157,4.157,0,0,0-3-1.3,4.225,4.225,0,0,0-4.2,4.2,2.768,2.768,0,0,0,.1.9A11.985,11.985,0,0,1,142.6,1a3.7,3.7,0,0,0-.6,2.1,4.183,4.183,0,0,0,1.6,3.5,9.67,9.67,0,0,1-2.1-.5v.1a4.461,4.461,0,0,0,3.6,4.1,3.083,3.083,0,0,1-1,.1,1.483,1.483,0,0,1-.7-.1,4.08,4.08,0,0,0,3.9,2.9,8.393,8.393,0,0,1-5.2,1.8,3.4,3.4,0,0,1-1-.1,11.486,11.486,0,0,0,6.4,1.9A11.661,11.661,0,0,0,159.3,5V4.5a9.6,9.6,0,0,0,2.2-2.4" transform="translate(-3504 24338)"/>
</svg>
