<svg xmlns="http://www.w3.org/2000/svg" viewBox="-500.565 -11264.113 265.565 25.904">
  <defs>
    <style>
      .cls-1 {
        fill: #fff;
      }
    </style>
  </defs>
  <g id="Group_3924" data-name="Group 3924" transform="translate(-500.565 -11264.113)">
    <path id="Path_3222" data-name="Path 3222" class="cls-1" d="M6.989,28.3H5.908c-1.775,0-3.578.638-3.578,4.41v6.767H0V26.305H2.274v2.08A3.941,3.941,0,0,1,5.824,26a7.437,7.437,0,0,1,1.137.055V28.3Z" transform="translate(0 -18.789)"/>
    <path id="Path_3223" data-name="Path 3223" class="cls-1" d="M37.089,25.8A6.962,6.962,0,1,1,30.1,32.762,6.851,6.851,0,0,1,37.089,25.8Zm0,2.025a4.6,4.6,0,0,0-4.6,4.909,4.613,4.613,0,1,0,9.208.028A4.626,4.626,0,0,0,37.089,27.825Z" transform="translate(-21.752 -18.644)"/>
    <path id="Path_3224" data-name="Path 3224" class="cls-1" d="M102.132,39.363H99.8V30.876a2.769,2.769,0,0,0-2.94-3.051,5.727,5.727,0,0,0-4.133,2.3V39.39H90.4V26.161h2.274v1.8a5.856,5.856,0,0,1,4.6-2.163c3.134,0,4.854,1.969,4.854,4.909Z" transform="translate(-65.327 -18.644)"/>
    <path id="Path_3225" data-name="Path 3225" class="cls-1" d="M151.337,30.46c0-1.747-1.3-2.552-3.134-2.552a5.753,5.753,0,0,0-3.689,1.442L143.266,27.6a7.685,7.685,0,0,1,5.1-1.8c3.356,0,5.27,1.914,5.27,4.687v8.875h-2.33v-1.5a4.591,4.591,0,0,1-3.938,1.858c-2.912,0-4.77-1.747-4.77-4.216,0-2.552,1.775-3.938,4.66-3.938h3.106c.749,0,.971-.388.971-.943Zm0,4.022V33.067a2.03,2.03,0,0,1-1.47.388h-2.052c-1.831,0-2.746.749-2.746,2.052,0,1.109.86,2.219,2.69,2.219C149.617,37.726,151.337,36.811,151.337,34.481Z" transform="translate(-103.05 -18.644)"/>
    <path id="Path_3226" data-name="Path 3226" class="cls-1" d="M197.53,20.935H195.2V.3h2.33Z" transform="translate(-141.061 -0.217)"/>
    <path id="Path_3227" data-name="Path 3227" class="cls-1" d="M225.155,9.952V.3h2.33V20.935h-2.33V18.772a5.419,5.419,0,0,1-4.715,2.5,6.648,6.648,0,0,1-6.74-6.962c0-4.049,2.8-6.962,6.656-6.962A5.686,5.686,0,0,1,225.155,9.952Zm-4.493,9.291a4.6,4.6,0,0,0,4.6-4.909,4.614,4.614,0,1,0-9.208,0A4.635,4.635,0,0,0,220.662,19.243Z" transform="translate(-154.43 -0.217)"/>
    <path id="Path_3228" data-name="Path 3228" class="cls-1" d="M299.376,20.718h-2.33V9.43H294.8V7.516h2.247V3.19A2.96,2.96,0,0,1,300.236,0c1.082,0,2.08.111,2.08.111V2.136A9.47,9.47,0,0,0,300.957,2c-1.082,0-1.581.25-1.581,1.553Z" transform="translate(-213.036)"/>
    <path id="Path_3229" data-name="Path 3229" class="cls-1" d="M325.941,33.455c.305,2.385,1.831,4.188,4.271,4.188a4.132,4.132,0,0,0,3.495-1.636h2.774a6.976,6.976,0,0,1-6.3,3.717,6.6,6.6,0,0,1-6.684-6.962c0-4.049,2.8-6.962,6.656-6.962,3.411,0,6.629,2.219,6.629,7.572v.083H325.941ZM326,31.541h8.071a3.9,3.9,0,0,0-3.911-3.689A4.151,4.151,0,0,0,326,31.541Z" transform="translate(-233.776 -18.644)"/>
    <path id="Path_3230" data-name="Path 3230" class="cls-1" d="M384.23,20.935H381.9V.3h2.33Z" transform="translate(-275.979 -0.217)"/>
    <path id="Path_3231" data-name="Path 3231" class="cls-1" d="M411.855,9.952V.3h2.33V20.935h-2.33V18.772a5.419,5.419,0,0,1-4.715,2.5,6.648,6.648,0,0,1-6.74-6.962c0-4.049,2.8-6.962,6.656-6.962A5.686,5.686,0,0,1,411.855,9.952Zm-4.493,9.291a4.6,4.6,0,0,0,4.6-4.909,4.614,4.614,0,1,0-9.208,0A4.635,4.635,0,0,0,407.362,19.243Z" transform="translate(-289.348 -0.217)"/>
    <path id="Path_3232" data-name="Path 3232" class="cls-1" d="M473.927,30.1v9.264H471.6V30.681a2.677,2.677,0,0,0-2.829-2.884c-1.331,0-2.579.749-3.938,2.3v9.264H462.5v-13.2h2.274v1.8a5.641,5.641,0,0,1,4.41-2.163c2.191,0,3.578.888,4.243,2.468a6.086,6.086,0,0,1,4.854-2.468c3.134,0,4.743,1.969,4.743,4.909v8.626h-2.33V30.681a2.67,2.67,0,0,0-2.8-2.884C476.59,27.8,475.258,28.574,473.927,30.1Z" transform="translate(-334.224 -18.644)"/>
    <path id="Path_3233" data-name="Path 3233" class="cls-1" d="M555.309,30.46c0-1.747-1.3-2.552-3.134-2.552a5.753,5.753,0,0,0-3.689,1.442L547.238,27.6a7.684,7.684,0,0,1,5.1-1.8c3.356,0,5.27,1.914,5.27,4.687v8.875h-2.3v-1.5a4.591,4.591,0,0,1-3.938,1.858c-2.912,0-4.77-1.747-4.77-4.216,0-2.552,1.775-3.938,4.66-3.938h3.106c.749,0,.971-.388.971-.943V30.46Zm0,4.022V33.067a2.03,2.03,0,0,1-1.47.388h-2.052c-1.831,0-2.746.749-2.746,2.052,0,1.109.86,2.219,2.69,2.219S555.309,36.811,555.309,34.481Z" transform="translate(-394.999 -18.644)"/>
    <path id="Path_3234" data-name="Path 3234" class="cls-1" d="M609.8,39.363h-2.3V30.876a2.769,2.769,0,0,0-2.94-3.051,5.727,5.727,0,0,0-4.133,2.3V39.39H598.1V26.161h2.274v1.8a5.855,5.855,0,0,1,4.6-2.163c3.134,0,4.854,1.969,4.854,4.909v8.653Z" transform="translate(-432.215 -18.644)"/>
    <path id="Path_3235" data-name="Path 3235" class="cls-1" d="M682.627,26.088h2.33V40.483c0,2.025-.971,3.966-3.994,3.966h-5.3V42.535h4.992c.943,0,2-.277,2-1.692V37.127a5.419,5.419,0,0,1-4.715,2.5,6.648,6.648,0,0,1-6.74-6.962c0-4.049,2.8-6.962,6.656-6.962a5.546,5.546,0,0,1,4.8,2.552V26.088ZM678.162,37.6a4.6,4.6,0,0,0,4.6-4.909,4.614,4.614,0,1,0-9.208,0A4.6,4.6,0,0,0,678.162,37.6Z" transform="translate(-485.041 -18.572)"/>
    <path id="Path_3236" data-name="Path 3236" class="cls-1" d="M739.037,30.46c0-1.747-1.3-2.552-3.134-2.552a5.753,5.753,0,0,0-3.689,1.442L730.966,27.6a7.685,7.685,0,0,1,5.1-1.8c3.356,0,5.27,1.914,5.27,4.687v8.875h-2.33v-1.5a4.592,4.592,0,0,1-3.938,1.858c-2.912,0-4.77-1.747-4.77-4.216,0-2.552,1.775-3.938,4.66-3.938h3.106c.749,0,.971-.388.971-.943Zm0,4.022V33.067a2.031,2.031,0,0,1-1.47.388h-2.08c-1.831,0-2.746.749-2.746,2.052,0,1.109.86,2.219,2.69,2.219C737.289,37.726,739.037,36.811,739.037,34.481Z" transform="translate(-527.749 -18.644)"/>
    <path id="Path_3237" data-name="Path 3237" class="cls-1" d="M785.23,20.935H782.9V.3h2.33Z" transform="translate(-565.761 -0.217)"/>
    <path id="Path_3238" data-name="Path 3238" class="cls-1" d="M807.83,20.935H805.5V.3h2.33Z" transform="translate(-582.093 -0.217)"/>
    <path id="Path_3239" data-name="Path 3239" class="cls-1" d="M826.441,33.455c.305,2.385,1.831,4.188,4.271,4.188a4.132,4.132,0,0,0,3.495-1.636h2.773a6.976,6.976,0,0,1-6.3,3.717A6.6,6.6,0,0,1,824,32.762c0-4.049,2.8-6.962,6.656-6.962,3.411,0,6.629,2.219,6.629,7.572v.083H826.441Zm.056-1.914h8.071a3.9,3.9,0,0,0-3.911-3.689A4.151,4.151,0,0,0,826.5,31.541Z" transform="translate(-595.461 -18.644)"/>
    <path id="Path_3240" data-name="Path 3240" class="cls-1" d="M888.289,28.3h-1.082c-1.775,0-3.578.638-3.578,4.41v6.767H881.3V26.305h2.274v2.08A3.93,3.93,0,0,1,887.152,26a7.439,7.439,0,0,1,1.137.055Z" transform="translate(-636.869 -18.789)"/>
    <path id="Path_3241" data-name="Path 3241" class="cls-1" d="M916.808,40.3h-.582L911.4,27.1h2.579l3.772,11.205L921.745,27.1h2.441l-5.935,15.476c-.749,1.886-1.636,2.912-4.188,2.912h-1.526V43.575h1.47c1.276,0,1.775-.416,2.247-1.747Z" transform="translate(-658.621 -19.584)"/>
  </g>
</svg>
