<?xml version="1.0" encoding="UTF-8"?>
<svg xmlns="http://www.w3.org/2000/svg" id="Layer_1" viewBox="0 0 1224 792">
  <defs>
    <style>.cls-1{fill:#532c82;}.cls-2{fill:#fff;}</style>
  </defs>
  <title>Artboard 4</title>
  <rect class="cls-1" x="-14.15" y="-15.55" width="1245.45" height="818.18"></rect>
  <path class="cls-2" d="M250,224.28V212.09H236.75V289h13.56V249.51c0-22,10.47-25.75,20.77-25.75h6.35v-13a42.57,42.57,0,0,0-6.7-.34A22.92,22.92,0,0,0,250,224.28Z"></path>
  <path class="cls-2" d="M366.82,250.54c0-23.52-18.2-40.52-40.69-40.52s-40.69,17-40.69,40.52,18.2,40.52,40.69,40.52S366.82,274.07,366.82,250.54Zm-40.69,28.67c-15.8,0-26.78-12.36-26.78-28.67s11-28.67,26.78-28.67,26.78,12.36,26.78,28.67S341.92,279.22,326.13,279.22Z"></path>
  <path class="cls-2" d="M396.45,235.09c7.9-9.1,16.31-13.39,24-13.39,11.16,0,17.17,7.38,17.17,17.86V289h13.56V238.7c0-17.17-10.13-28.67-28.33-28.67a34.14,34.14,0,0,0-26.78,12.53V212.09H382.89V289h13.56Z"></path>
  <path class="cls-2" d="M512.51,243.5h-18c-16.83,0-27.13,8.07-27.13,23,0,14.42,10.82,24.55,27.81,24.55,8.07,0,18.54-3.09,23-10.82V289h13.56V237.32c0-16.14-11.16-27.3-30.73-27.3-13.22,0-23.52,5-29.7,10.47l7.21,10.13c5.67-4.46,12.36-8.41,21.46-8.41,10.64,0,18.2,4.81,18.2,14.94V238C518.18,241.27,516.81,243.5,512.51,243.5Zm5.67,17.17c0,13.56-10.13,18.89-20.95,18.89-10.64,0-15.62-6.35-15.62-12.88,0-7.73,5.32-12,16-12h12c3.78,0,7-.52,8.58-2.23Z"></path>
  <rect class="cls-2" x="552.28" y="168.82" width="13.56" height="120.18"></rect>
  <path class="cls-2" d="M621.39,291.06c12,0,23.35-6.53,27.47-14.59V289h13.56V168.82H648.86V225c-4.12-8.24-16-14.94-28-14.94-22.49,0-38.8,17-38.8,40.52S598.9,291.06,621.39,291.06Zm1.37-69.19c15.79,0,26.78,12.36,26.78,28.67s-11,28.67-26.78,28.67S596,266.86,596,250.54,607,221.87,622.77,221.87Z"></path>
  <path class="cls-2" d="M437.1,441.45V341.52c0-7.73,2.92-9.1,9.27-9.1a50.84,50.84,0,0,1,7.9.86V321.44a118.09,118.09,0,0,0-12.19-.69c-8.24,0-18.54,4.12-18.54,18.54v25.24h-13v11.16h13v65.76Z"></path>
  <path class="cls-2" d="M496.65,362.47c-22.49,0-38.8,17-38.8,40.52s16.48,40.52,39,40.52c15.79,0,29.87-8.24,36.74-21.63H517.43c-4.46,6.35-12,9.62-20.43,9.62-14.25,0-23.18-10.47-24.89-24.38h63.18v-.52C535.28,375.35,516.57,362.47,496.65,362.47Zm-24.21,33.48c2.4-12.53,10.82-21.46,24.21-21.46a22.82,22.82,0,0,1,22.83,21.46Z"></path>
  <rect class="cls-2" x="552.28" y="321.27" width="13.56" height="120.18"></rect>
  <path class="cls-2" d="M648.87,377.41c-4.12-8.24-16-14.94-28-14.94-22.49,0-38.8,17-38.8,40.52s16.83,40.52,39.32,40.52c12,0,23.35-6.53,27.47-14.59v12.53h13.56V321.27H648.87Zm-26.1,54.25C607,431.66,596,419.3,596,403s11-28.67,26.78-28.67,26.78,12.36,26.78,28.67S638.57,431.66,622.77,431.66Z"></path>
  <path class="cls-2" d="M774.59,362.47c-10.82,0-19.74,4.46-28.33,14.42-3.95-9.27-12-14.42-24.72-14.42-10.82,0-19.57,5.15-25.75,12.53V364.53H682.56v76.92h13.56V387.54c7.9-9.1,15.28-13.39,23-13.39,10.82,0,16.48,7.38,16.48,16.83v50.48h13.56V387.54q11.59-13.39,23.18-13.39c10.65,0,16.31,7.38,16.31,16.83v50.48h13.56v-50.3C802.23,374,792.79,362.47,774.59,362.47Z"></path>
  <path class="cls-2" d="M852,362.47c-13.22,0-23.52,5-29.7,10.47l7.21,10.13c5.66-4.46,12.36-8.41,21.46-8.41,10.64,0,18.2,4.81,18.2,14.94v.86c0,3.26-1.37,5.49-5.67,5.49h-18c-16.83,0-27.13,8.07-27.13,23,0,14.42,10.82,24.55,27.81,24.55,8.07,0,18.54-3.09,23-10.82v8.76h13.56V389.77C882.75,373.63,871.59,362.47,852,362.47Zm17.17,50.65c0,13.56-10.13,18.89-20.95,18.89-10.65,0-15.62-6.35-15.62-12.88,0-7.73,5.32-12,16-12h12c3.78,0,7-.52,8.58-2.23Z"></path>
  <path class="cls-2" d="M941.67,362.47A34.13,34.13,0,0,0,914.89,375V364.53H901.67v76.92h13.56V387.54c7.9-9.1,16.31-13.39,24-13.39,11.16,0,17.17,7.38,17.17,17.86v49.45H970v-50.3C970,374,959.87,362.47,941.67,362.47Z"></path>
  <path class="cls-2" d="M403.87,530.74c-4.12-8.24-16-14.94-28-14.94-22.49,0-38.8,17-38.8,40.52s16.83,40.52,39.32,40.52c12,0,23.35-6.53,27.47-14.59v21.8c0,8.24-6.18,9.79-11.67,9.79h-29V625h30.9c17.68,0,23.35-11.33,23.35-23.18v-84H403.87ZM377.77,585C362,585,351,572.64,351,556.32s11-28.67,26.78-28.67,26.78,12.36,26.78,28.67S393.57,585,377.77,585Z"></path>
  <path class="cls-2" d="M466.47,515.81c-13.22,0-23.52,5-29.7,10.47L444,536.41c5.67-4.46,12.36-8.41,21.46-8.41,10.64,0,18.2,4.81,18.2,14.94v.86c0,3.26-1.37,5.49-5.66,5.49h-18c-16.83,0-27.13,8.07-27.13,23,0,14.42,10.82,24.55,27.82,24.55,8.07,0,18.54-3.09,23-10.82v8.76H497.2V543.11C497.2,527,486,515.81,466.47,515.81Zm17.17,50.65c0,13.56-10.13,18.89-20.95,18.89-10.64,0-15.62-6.35-15.62-12.88,0-7.73,5.32-12,16-12h12c3.78,0,7-.52,8.58-2.23Z"></path>
  <rect class="cls-2" x="516.29" y="474.6" width="13.56" height="120.18"></rect>
  <rect class="cls-2" x="552.86" y="474.6" width="13.56" height="120.18"></rect>
  <path class="cls-2" d="M621.46,515.81c-22.49,0-38.8,17-38.8,40.52s16.48,40.52,39,40.52c15.8,0,29.87-8.24,36.74-21.63H642.24c-4.46,6.35-12,9.62-20.43,9.62-14.25,0-23.18-10.47-24.89-24.38h63.18v-.52C660.09,528.68,641.38,515.81,621.46,515.81Zm-24.21,33.48c2.4-12.53,10.82-21.46,24.21-21.46a22.82,22.82,0,0,1,22.84,21.46Z"></path>
  <path class="cls-2" d="M688.69,530.06V517.87H675.47v76.92H689V555.3c0-22,10.47-25.75,20.77-25.75h6.35v-13a42.56,42.56,0,0,0-6.69-.34A22.92,22.92,0,0,0,688.69,530.06Z"></path>
  <path class="cls-2" d="M761,583.11l-22-65.24H723.89L752,594.78h3.43l-3.09,8.93c-2.75,7.73-5.67,10.13-13,10.13h-8.58V625h8.93c14.76,0,20.09-6,24.38-17l34.51-90.14H784.33Z"></path>
</svg>
